<?xml version="1.0" encoding="UTF-8"?>
<svg version="1.1" xmlns="http://www.w3.org/2000/svg" width="1644" height="411">
<path d="M0 0 C20.21445952 18.02817957 35.88220144 38.12702427 47.22729492 62.76049805 C47.76225586 63.91678711 48.2972168 65.07307617 48.84838867 66.2644043 C52.14468461 73.92722213 54.42013369 81.68806133 56.47729492 89.76049805 C56.72366699 90.72084961 56.97003906 91.68120117 57.22387695 92.6706543 C60.6369295 106.69082315 61.57795721 120.37567908 61.54296875 134.73779297 C61.53981902 137.42741907 61.56333157 140.11592943 61.58862305 142.80541992 C61.64736507 158.69069403 59.94158367 174.37314862 55.60229492 189.69799805 C55.34996094 190.59929443 55.09762695 191.50059082 54.83764648 192.42919922 C46.75636746 220.05785264 31.96753879 243.117883 12.22729492 263.76049805 C11.35331055 264.68733398 10.47932617 265.61416992 9.57885742 266.5690918 C-1.20644437 277.71812078 -13.45686996 286.84755014 -26.77270508 294.76049805 C-27.34537109 295.10177734 -27.91803711 295.44305664 -28.50805664 295.79467773 C-71.35121715 320.90466244 -125.95272398 325.09285606 -173.52270508 313.07299805 C-219.6104008 300.67321324 -259.80875652 270.15574222 -283.77270508 228.76049805 C-286.66563921 223.53395676 -289.27437548 218.18509299 -291.77270508 212.76049805 C-292.30766602 211.60420898 -292.84262695 210.44791992 -293.39379883 209.2565918 C-301.23461248 191.02924576 -305.77270508 170.58155401 -305.77270508 150.76049805 C-323.92270508 150.76049805 -342.07270508 150.76049805 -360.77270508 150.76049805 C-360.77270508 205.21049805 -360.77270508 259.66049805 -360.77270508 315.76049805 C-385.85270508 315.76049805 -410.93270508 315.76049805 -436.77270508 315.76049805 C-436.77270508 261.31049805 -436.77270508 206.86049805 -436.77270508 150.76049805 C-455.58270508 150.76049805 -474.39270508 150.76049805 -493.77270508 150.76049805 C-493.77270508 154.39049805 -493.77270508 158.02049805 -493.77270508 161.76049805 C-496.99514128 200.88677454 -511.80363698 236.22933741 -538.77270508 264.76049805 C-539.51907227 265.57131836 -540.26543945 266.38213867 -541.03442383 267.2175293 C-558.77476552 285.83755735 -582.37972379 297.44761249 -606.77270508 304.76049805 C-607.90724121 305.10951172 -607.90724121 305.10951172 -609.06469727 305.46557617 C-672.15262988 324.57983111 -753.09929043 314.76049805 -810.77270508 314.76049805 C-810.77270508 199.26049805 -810.77270508 83.76049805 -810.77270508 -35.23950195 C-654.52936819 -35.23950195 -654.52936819 -35.23950195 -634.21020508 -31.48950195 C-633.27587646 -31.3203125 -632.34154785 -31.15112305 -631.37890625 -30.97680664 C-597.07612704 -24.49774443 -566.30289911 -11.40340119 -540.77270508 12.76049805 C-539.8265332 13.63061523 -538.88036133 14.50073242 -537.90551758 15.3972168 C-510.64543113 41.03016808 -494.84944684 80.82022799 -493.7043457 117.97875977 C-493.62260297 122.58068127 -493.69045262 127.15436023 -493.77270508 131.76049805 C-485.52270508 131.76049805 -477.27270508 131.76049805 -468.77270508 131.76049805 C-468.77270508 124.83049805 -468.77270508 117.90049805 -468.77270508 110.76049805 C-470.79395508 111.13174805 -472.81520508 111.50299805 -474.89770508 111.88549805 C-479.88326983 112.80121402 -483.08834476 112.80345695 -487.77270508 110.76049805 C-489.93230152 108.22531961 -489.77270508 106.68000398 -489.77270508 103.32299805 C-488.53383533 98.90952457 -486.57847232 97.04236268 -482.77270508 94.76049805 C-479.11579331 92.90802867 -475.43025403 91.16863824 -471.44067383 90.1862793 C-468.68194852 89.37323078 -467.00072585 88.61033079 -464.77270508 86.76049805 C-462.70695095 82.95986816 -461.15247407 79.08153423 -459.56567383 75.06518555 C-452.12312425 56.50229895 -437.21387677 42.49179518 -419.03833008 34.5847168 C-406.42524998 29.99616525 -389.84023546 29.28540227 -377.31958008 34.5144043 C-376.47911133 34.92561523 -375.63864258 35.33682617 -374.77270508 35.76049805 C-373.87036133 36.16139648 -372.96801758 36.56229492 -372.03833008 36.9753418 C-364.03708134 40.87425537 -358.00523638 46.53692153 -351.77270508 52.76049805 C-351.10239258 53.41920898 -350.43208008 54.07791992 -349.74145508 54.7565918 C-331.45724455 74.07967793 -326.08766677 101.59120942 -326.63208008 127.14331055 C-326.67848633 128.66698242 -326.72489258 130.1906543 -326.77270508 131.76049805 C-319.84270508 131.76049805 -312.91270508 131.76049805 -305.77270508 131.76049805 C-305.86551758 128.66674805 -305.86551758 128.66674805 -305.96020508 125.51049805 C-306.29215852 82.39022729 -285.97698325 42.2997698 -256.77270508 11.76049805 C-255.8987207 10.83366211 -255.02473633 9.90682617 -254.12426758 8.9519043 C-243.33896578 -2.19712469 -231.0885402 -11.32655405 -217.77270508 -19.23950195 C-217.20003906 -19.58078125 -216.62737305 -19.92206055 -216.03735352 -20.27368164 C-149.88389242 -59.04562042 -57.59777108 -50.16473967 0 0 Z M-192.77270508 55.76049805 C-193.64540039 56.6112793 -194.5180957 57.46206055 -195.41723633 58.33862305 C-215.98356422 79.45554554 -224.99857555 108.19028794 -225.02270508 137.13549805 C-225.02337982 137.85736298 -225.02405457 138.57922791 -225.02474976 139.32296753 C-225.00920734 149.76180729 -224.67239678 159.64092619 -221.77270508 169.76049805 C-221.27963867 171.58194336 -221.27963867 171.58194336 -220.77661133 173.44018555 C-212.62172536 200.58551532 -193.63631493 224.97225678 -168.77270508 238.76049805 C-144.8720092 250.97523421 -117.49517032 253.29557876 -91.77270508 245.76049805 C-65.09601238 236.9076656 -43.44650014 216.77031846 -30.81079102 191.86450195 C-26.23734206 182.45257853 -23.01354977 172.99631628 -20.77270508 162.76049805 C-20.54711914 161.76405273 -20.3215332 160.76760742 -20.08911133 159.7409668 C-14.34594075 129.52000714 -21.10352211 96.66895535 -38.34155273 71.27172852 C-55.05905131 47.59681004 -76.95065808 32.27492746 -105.52270508 26.44799805 C-138.84216923 21.74620121 -169.25866121 32.00258153 -192.77270508 55.76049805 Z M-731.77270508 33.76049805 C-731.77270508 103.72049805 -731.77270508 173.68049805 -731.77270508 245.76049805 C-659.15363611 248.16006324 -659.15363611 248.16006324 -598.08520508 215.57299805 C-577.80787401 194.65928854 -572.22860916 165.16319657 -572.41943359 137.06054688 C-573.028024 108.72728261 -580.76978357 82.39348113 -600.71020508 61.44799805 C-635.59062334 28.34231731 -688.09477226 33.76049805 -731.77270508 33.76049805 Z " fill="#000000" transform="translate(1576.772705078125,80.239501953125)"/>
<path d="M0 0 C20.21445952 18.02817957 35.88220144 38.12702427 47.22729492 62.76049805 C48.02973633 64.49493164 48.02973633 64.49493164 48.84838867 66.2644043 C52.14468461 73.92722213 54.42013369 81.68806133 56.47729492 89.76049805 C56.72366699 90.72084961 56.97003906 91.68120117 57.22387695 92.6706543 C60.6369295 106.69082315 61.57795721 120.37567908 61.54296875 134.73779297 C61.53981902 137.42741907 61.56333157 140.11592943 61.58862305 142.80541992 C61.64736507 158.69069403 59.94158367 174.37314862 55.60229492 189.69799805 C55.34996094 190.59929443 55.09762695 191.50059082 54.83764648 192.42919922 C46.75636746 220.05785264 31.96753879 243.117883 12.22729492 263.76049805 C11.35331055 264.68733398 10.47932617 265.61416992 9.57885742 266.5690918 C-1.20644437 277.71812078 -13.45686996 286.84755014 -26.77270508 294.76049805 C-27.34537109 295.10177734 -27.91803711 295.44305664 -28.50805664 295.79467773 C-71.35121715 320.90466244 -125.95272398 325.09285606 -173.52270508 313.07299805 C-219.6104008 300.67321324 -259.80875652 270.15574222 -283.77270508 228.76049805 C-286.66563921 223.53395676 -289.27437548 218.18509299 -291.77270508 212.76049805 C-292.30766602 211.60420898 -292.84262695 210.44791992 -293.39379883 209.2565918 C-311.84317335 166.36778609 -311.41537734 112.67830126 -294.73364258 69.29956055 C-285.81784573 47.22530492 -273.1558708 28.89257531 -256.77270508 11.76049805 C-255.8987207 10.83366211 -255.02473633 9.90682617 -254.12426758 8.9519043 C-243.33896578 -2.19712469 -231.0885402 -11.32655405 -217.77270508 -19.23950195 C-216.91370605 -19.7514209 -216.91370605 -19.7514209 -216.03735352 -20.27368164 C-149.88389242 -59.04562042 -57.59777108 -50.16473967 0 0 Z M-192.77270508 55.76049805 C-193.64540039 56.6112793 -194.5180957 57.46206055 -195.41723633 58.33862305 C-215.98356422 79.45554554 -224.99857555 108.19028794 -225.02270508 137.13549805 C-225.02337982 137.85736298 -225.02405457 138.57922791 -225.02474976 139.32296753 C-225.00920734 149.76180729 -224.67239678 159.64092619 -221.77270508 169.76049805 C-221.27963867 171.58194336 -221.27963867 171.58194336 -220.77661133 173.44018555 C-212.62172536 200.58551532 -193.63631493 224.97225678 -168.77270508 238.76049805 C-144.8720092 250.97523421 -117.49517032 253.29557876 -91.77270508 245.76049805 C-65.09601238 236.9076656 -43.44650014 216.77031846 -30.81079102 191.86450195 C-26.23734206 182.45257853 -23.01354977 172.99631628 -20.77270508 162.76049805 C-20.54711914 161.76405273 -20.3215332 160.76760742 -20.08911133 159.7409668 C-14.34594075 129.52000714 -21.10352211 96.66895535 -38.34155273 71.27172852 C-55.05905131 47.59681004 -76.95065808 32.27492746 -105.52270508 26.44799805 C-138.84216923 21.74620121 -169.25866121 32.00258153 -192.77270508 55.76049805 Z " fill="#000000" transform="translate(638.772705078125,80.239501953125)"/>
<path d="M0 0 C156.24333689 0 156.24333689 0 176.5625 3.75 C177.49682861 3.91918945 178.43115723 4.08837891 179.39379883 4.26269531 C213.69657803 10.74175753 244.46980597 23.83610076 270 48 C270.94617187 48.87011719 271.89234375 49.74023438 272.8671875 50.63671875 C300.12727395 76.26967003 315.92325824 116.05972995 317.06835938 153.21826172 C317.15010211 157.82018323 317.08225246 162.39386218 317 167 C310.4 167 303.8 167 297 167 C297 173.27 297 179.54 297 186 C303.6 186 310.2 186 317 186 C317.91224286 228.45437915 300.93311833 269.39102814 272 300 C271.25363281 300.81082031 270.50726562 301.62164062 269.73828125 302.45703125 C251.99793956 321.0770593 228.39298129 332.68711444 204 340 C202.86546387 340.34901367 202.86546387 340.34901367 201.70800781 340.70507812 C138.6200752 359.81933306 57.67341465 350 0 350 C0 234.5 0 119 0 0 Z M79 69 C79 138.96 79 208.92 79 281 C151.61906896 283.3995652 151.61906896 283.3995652 212.6875 250.8125 C232.96483107 229.8987905 238.54409592 200.40269852 238.35327148 172.30004883 C237.74468108 143.96678456 230.00292151 117.63298308 210.0625 96.6875 C175.18208174 63.58181926 122.67793282 69 79 69 Z " fill="#000000" transform="translate(766,45)"/>
<path d="M0 0 C208.9575 0 208.9575 0 248.25 36.8125 C274.56425311 64.50880422 278.66606843 102.2041454 278.09326172 138.58447266 C277.36241721 165.35021782 269.47002658 191.43316717 252 212 C250.83017578 213.46759766 250.83017578 213.46759766 249.63671875 214.96484375 C226.68366551 242.41524861 185.6746189 249.15837766 152.24658203 252.38037109 C138.09388035 253.62653814 123.87950223 253.31135987 109.6875 253.1875 C99.560625 253.125625 89.43375 253.06375 79 253 C79 285.34 79 317.68 79 351 C52.93 351 26.86 351 0 351 C0 235.17 0 119.34 0 0 Z M79 68 C79 106.28 79 144.56 79 184 C90.075625 184.061875 101.15125 184.12375 112.5625 184.1875 C116.0282251 184.21481201 119.4939502 184.24212402 123.06469727 184.27026367 C126.23784196 184.28031188 126.23784196 184.28031188 129.41099548 184.28633118 C130.7978659 184.29086497 132.18472637 184.30125928 133.57151794 184.31672668 C151.32149296 184.50437931 169.5006878 182.35570333 182.8125 169.44921875 C195.84926402 154.85269903 198.05202945 135.28119619 197.1953125 116.48339844 C196.37956418 106.11115855 193.35170797 96.33952856 187 88 C186.54496094 87.37996094 186.08992188 86.75992188 185.62109375 86.12109375 C173.85135822 72.38461391 152.75404932 69.67540493 136 68 C117.19 68 98.38 68 79 68 Z " fill="#000000" transform="translate(15,45)"/>
<path d="M0 0 C6.42057152 3.99056355 10.5183767 8.73214543 13.125 15.8125 C13.6657744 19.16687369 13.68666388 22.42098664 13.625 25.8125 C13.64820313 27.08867187 13.64820313 27.08867187 13.671875 28.390625 C13.62699335 35.70633355 11.51087005 40.79507611 7 46.5 C-2.30580429 53.98510345 -11.03179576 55.06528622 -22.70654297 54.12109375 C-28.34204469 53.31910386 -32.89737099 50.79012901 -36.875 46.8125 C-41.83774358 48.87408292 -46.79987679 50.93712595 -51.76147461 53.00146484 C-53.44588202 53.70205194 -55.13044925 54.40225494 -56.81518555 55.10205078 C-59.25092042 56.11387309 -61.68605776 57.1271221 -64.12109375 58.140625 C-64.86209824 58.44808655 -65.60310272 58.7555481 -66.36656189 59.07232666 C-70.95864596 60.9855746 -75.50105094 62.98303752 -80.01869202 65.06658936 C-81.875 65.8125 -81.875 65.8125 -83.875 65.8125 C-83.875 66.4725 -83.875 67.1325 -83.875 67.8125 C-82.87968262 67.98378922 -82.87968262 67.98378922 -81.86425781 68.15853882 C-75.05794943 69.35890216 -68.34529957 70.80512237 -61.625 72.4140625 C-59.53255456 72.90886464 -57.44010657 73.40365601 -55.34765625 73.8984375 C-52.09076512 74.67226416 -48.83414684 75.44722781 -45.57763672 76.22265625 C-42.40656792 76.97670278 -39.23457987 77.72678268 -36.0625 78.4765625 C-34.59538574 78.8280687 -34.59538574 78.8280687 -33.09863281 79.18667603 C-32.19338867 79.40044891 -31.28814453 79.6142218 -30.35546875 79.83447266 C-29.56035889 80.02385406 -28.76524902 80.21323547 -27.94604492 80.40835571 C-25.73594122 80.90826384 -25.73594122 80.90826384 -22.875 80.8125 C-22.38 79.3275 -22.38 79.3275 -21.875 77.8125 C-17.43815049 72.37378124 -11.79501943 68.48685699 -4.71972656 67.51708984 C6.96562023 66.56539665 15.68285396 67.63077384 25 75.125 C30.2287543 81.73783632 31.77719813 87.44160272 31.625 95.8125 C31.64820313 97.08867187 31.64820313 97.08867187 31.671875 98.390625 C31.62699335 105.70633355 29.51087005 110.79507611 25 116.5 C18.54934702 121.6885687 13.607857 124.00434684 5.29492188 123.69555664 C-2.16640034 123.37792484 -2.16640034 123.37792484 -8.86181641 126.21484375 C-12.65542802 129.94820689 -15.58643051 134.25847496 -18.47021484 138.71191406 C-19.79973367 140.69995368 -21.21103387 142.52859028 -22.73828125 144.3671875 C-23.17575684 144.90045654 -23.61323242 145.43372559 -24.06396484 145.9831543 C-24.47598145 146.48371338 -24.88799805 146.98427246 -25.3125 147.5 C-27.58836034 150.10564579 -27.58836034 150.10564579 -28.875 152.8125 C-28.11736504 155.1557662 -28.11736504 155.1557662 -26.875 157.8125 C-26.50278989 161.08175167 -26.50483851 164.33723405 -26.5 167.625 C-26.47550781 168.48931641 -26.45101562 169.35363281 -26.42578125 170.24414062 C-26.39213045 177.67535916 -28.41622971 182.70287875 -33 188.5 C-42.31714604 195.99422616 -51.03437977 197.05960335 -62.71972656 196.10791016 C-69.72891148 195.14720402 -75.5340469 191.30252892 -79.875 185.8125 C-83.65230795 179.9013992 -84.52734132 174.81392102 -84.4375 167.875 C-84.47327148 166.61139648 -84.47327148 166.61139648 -84.50976562 165.32226562 C-84.49808158 160.26307449 -83.97256893 157.7164966 -80.83203125 153.71484375 C-79.3225724 151.52509791 -79.3225724 151.52509791 -78.875 148.8125 C-80.73970943 142.85483982 -83.85572693 137.6771588 -87 132.3125 C-87.81732389 130.86135295 -88.63115947 129.40823539 -89.44140625 127.953125 C-91.06705762 125.04309583 -92.70927569 122.14343999 -94.36425781 119.25 C-96.98054158 114.65350028 -99.50433502 110.01084268 -101.9921875 105.34375 C-102.38318634 104.61740356 -102.77418518 103.89105713 -103.17703247 103.1427002 C-105.875 98.05105237 -105.875 98.05105237 -105.875 95.8125 C-106.91398437 95.87050781 -107.95296875 95.92851562 -109.0234375 95.98828125 C-119.47813208 96.39612854 -126.37259135 95.23835043 -134.75 88.5 C-139.9787543 81.88716368 -141.52719813 76.18339728 -141.375 67.8125 C-141.39046875 66.96171875 -141.4059375 66.1109375 -141.421875 65.234375 C-141.37699335 57.91866645 -139.26087005 52.82992389 -134.75 47.125 C-125.44556567 39.64099847 -116.72097385 38.55965038 -105.04785156 39.50390625 C-100.45803231 40.15576373 -96.48813439 41.93246534 -92.875 44.8125 C-92.545 45.4725 -92.215 46.1325 -91.875 46.8125 C-85.67151104 44.84130596 -79.66988048 42.57115587 -73.68359375 40.01953125 C-72.85287857 39.66863937 -72.02216339 39.3177475 -71.16627502 38.95622253 C-68.54699149 37.84899293 -65.92972503 36.73708538 -63.3125 35.625 C-61.52291846 34.8675266 -59.73320607 34.11036228 -57.94335938 33.35351562 C-53.5857202 31.51007641 -49.22988191 29.6624429 -44.875 27.8125 C-44.82311523 26.99773193 -44.77123047 26.18296387 -44.71777344 25.34350586 C-44.64075195 24.26979736 -44.56373047 23.19608887 -44.484375 22.08984375 C-44.41186523 21.02757568 -44.33935547 19.96530762 -44.26464844 18.87084961 C-43.40888869 12.15399347 -40.12501577 7.03533877 -34.875 2.8125 C-25.55599984 -4.21557929 -10.51414449 -4.97290618 0 0 Z M-88.875 86.8125 C-87.3999221 90.68502702 -85.64981379 94.33000112 -83.75 98.01171875 C-83.29489548 98.89471397 -83.29489548 98.89471397 -82.83059692 99.79554749 C-81.84824828 101.69852171 -80.86198542 103.59942698 -79.875 105.5 C-79.54062927 106.14545776 -79.20625854 106.79091553 -78.86175537 107.45593262 C-71.25434631 124.67224434 -71.25434631 124.67224434 -60.875 139.8125 C-55.61985516 141.00771345 -50.21579212 141.96794087 -44.875 140.8125 C-41.02475485 137.98761974 -38.60341255 134.56196807 -36.05908203 130.60009766 C-34.03831724 127.54936779 -31.71201492 124.73825192 -29.4375 121.875 C-26.67180046 118.29246464 -24.12509258 114.74111823 -21.875 110.8125 C-22.349375 110.090625 -22.82375 109.36875 -23.3125 108.625 C-24.82846883 105.89625611 -25.34927775 103.84943921 -25.875 100.8125 C-33.49729749 98.98181995 -41.1207424 97.15600519 -48.74568558 95.33638 C-52.28627507 94.49128848 -55.8264487 93.64453104 -59.36572266 92.79394531 C-62.78179815 91.9730327 -66.19889885 91.1565239 -69.61675262 90.3430481 C-71.55400874 89.88075493 -73.49017836 89.41391641 -75.42633057 88.94702148 C-76.60725281 88.66673096 -77.78817505 88.38644043 -79.00488281 88.09765625 C-80.04412903 87.84894775 -81.08337524 87.60023926 -82.15411377 87.34399414 C-85.06724858 86.68468987 -85.06724858 86.68468987 -88.875 86.8125 Z " fill="#7D7D7D" transform="translate(564.875,130.1875)"/>
<path d="M0 0 C25.08 0 50.16 0 76 0 C76 54.45 76 108.9 76 165 C50.92 165 25.84 165 0 165 C0 110.55 0 56.1 0 0 Z " fill="#000000" transform="translate(1140,231)"/>
<path d="M0 0 C0.90234375 0.40089844 1.8046875 0.80179687 2.734375 1.21484375 C10.73562373 5.11375733 16.7674687 10.77642349 23 17 C23.6703125 17.65871094 24.340625 18.31742188 25.03125 18.99609375 C44.76637221 39.85252972 48 68.80382757 48 96 C3.78 96 -40.44 96 -86 96 C-86 87.42 -86 78.84 -86 70 C-74.85714286 64.42857143 -74.85714286 64.42857143 -68.75 64.9375 C-64.53624895 65.0791771 -62.31470804 65.13022402 -58.375 63.5 C-54.30420386 59.21495144 -51.83924468 54.79451457 -51.5 48.8125 C-52.07528209 44.42597403 -52.77524403 42.97669782 -56 40 C-60.6498823 36.62655598 -64.0882459 35.33427749 -69.85546875 35.609375 C-74.16836141 36.39496565 -76.8990849 38.82315972 -79.8125 41.9375 C-81.16475137 44.28614712 -81.62894487 46.32840307 -82 49 C-84.31 49.66 -86.62 50.32 -89 51 C-86.83784674 35.03095376 -73.57590173 19.17181661 -62 9 C-44.5566845 -3.9743669 -20.42022899 -9.99087891 0 0 Z " fill="#000000" transform="translate(1202,116)"/>
<path d="M0 0 C9.07953063 8.3951439 13.25673563 17.98995406 14.45703125 30.23046875 C14.86089731 42.51052103 12.14977347 53.14714141 4.3515625 62.7890625 C-4.68149758 72.41092299 -14.96134087 77.88567205 -28.17260742 78.3125 C-42.15620973 78.51859109 -52.83671179 74.458769 -63.16796875 64.90625 C-71.76998549 55.77136496 -75.00968527 45.44561961 -75.41796875 33.03125 C-74.94664989 19.2893594 -70.17574706 8.6201043 -60.1328125 -0.7734375 C-41.98481304 -15.44851044 -17.85904782 -14.54113102 0 0 Z " fill="#000000" transform="translate(1208.41796875,26.96875)"/>
<path d="M0 0 C6.42057152 3.99056355 10.5183767 8.73214543 13.125 15.8125 C13.6657744 19.16687369 13.68666388 22.42098664 13.625 25.8125 C13.64820313 27.08867187 13.64820313 27.08867187 13.671875 28.390625 C13.62699335 35.70633355 11.51087005 40.79507611 7 46.5 C-2.30580429 53.98510345 -11.03179576 55.06528622 -22.70654297 54.12109375 C-28.34204469 53.31910386 -32.89737099 50.79012901 -36.875 46.8125 C-41.83774358 48.87408292 -46.79987679 50.93712595 -51.76147461 53.00146484 C-53.44588202 53.70205194 -55.13044925 54.40225494 -56.81518555 55.10205078 C-59.25092042 56.11387309 -61.68605776 57.1271221 -64.12109375 58.140625 C-64.86209824 58.44808655 -65.60310272 58.7555481 -66.36656189 59.07232666 C-70.95864596 60.9855746 -75.50105094 62.98303752 -80.01869202 65.06658936 C-81.875 65.8125 -81.875 65.8125 -83.875 65.8125 C-83.88917969 66.41835937 -83.90335937 67.02421875 -83.91796875 67.6484375 C-84.39033623 75.94678517 -86.76453313 82.55736026 -92.5625 88.625 C-94.2021875 89.7078125 -94.2021875 89.7078125 -95.875 90.8125 C-96.88626953 91.50859375 -96.88626953 91.50859375 -97.91796875 92.21875 C-105.49779231 96.78949788 -113.33559982 96.89398432 -121.875 95.8125 C-129.38998471 93.47301937 -135.1530121 89.21153551 -138.9765625 82.26953125 C-141.3296396 77.44983696 -141.47119448 73.10319633 -141.375 67.8125 C-141.39046875 66.96171875 -141.4059375 66.1109375 -141.421875 65.234375 C-141.37699335 57.91866645 -139.26087005 52.82992389 -134.75 47.125 C-125.44556567 39.64099847 -116.72097385 38.55965038 -105.04785156 39.50390625 C-100.45803231 40.15576373 -96.48813439 41.93246534 -92.875 44.8125 C-92.545 45.4725 -92.215 46.1325 -91.875 46.8125 C-85.67151104 44.84130596 -79.66988048 42.57115587 -73.68359375 40.01953125 C-72.85287857 39.66863937 -72.02216339 39.3177475 -71.16627502 38.95622253 C-68.54699149 37.84899293 -65.92972503 36.73708538 -63.3125 35.625 C-61.52291846 34.8675266 -59.73320607 34.11036228 -57.94335938 33.35351562 C-53.5857202 31.51007641 -49.22988191 29.6624429 -44.875 27.8125 C-44.82311523 26.99773193 -44.77123047 26.18296387 -44.71777344 25.34350586 C-44.64075195 24.26979736 -44.56373047 23.19608887 -44.484375 22.08984375 C-44.41186523 21.02757568 -44.33935547 19.96530762 -44.26464844 18.87084961 C-43.40888869 12.15399347 -40.12501577 7.03533877 -34.875 2.8125 C-25.55599984 -4.21557929 -10.51414449 -4.97290618 0 0 Z " fill="#7D7D7D" transform="translate(564.875,130.1875)"/>
<path d="M0 0 C4.91225731 2.36744583 9.07316745 5.34041075 12 10 C12.93569281 16.90073445 11.08332115 21.42785397 7 27 C4.0256054 30.12692766 2.12885083 30.96810372 -2.1796875 31.08984375 C-4.54495897 31.03134779 -6.90969907 30.92065453 -9.26953125 30.75 C-14.06837068 30.85667763 -14.06837068 30.85667763 -22 35 C-22.33 43.58 -22.66 52.16 -23 61 C36.07 61 95.14 61 156 61 C156 67.27 156 73.54 156 80 C79.44 80 2.88 80 -76 80 C-76 73.73 -76 67.46 -76 61 C-61.15 61 -46.3 61 -31 61 C-31 54.07 -31 47.14 -31 40 C-33.02125 40.37125 -35.0425 40.7425 -37.125 41.125 C-42.11056475 42.04071598 -45.31563968 42.0429589 -50 40 C-52.15959644 37.46482157 -52 35.91950594 -52 32.5625 C-50.76042082 28.14649917 -48.8040933 26.28727129 -45 24 C-42.06689812 22.48707591 -39.05670169 21.24033336 -36 20 C-34.98679687 19.56300781 -33.97359375 19.12601563 -32.9296875 18.67578125 C-23.93561505 14.81960031 -23.93561505 14.81960031 -19 14 C-18.979375 12.96875 -18.95875 11.9375 -18.9375 10.875 C-17.70325066 5.77343605 -15.20977809 3.89726067 -11 1 C-7.45451386 -0.77274307 -3.86190019 -0.64065631 0 0 Z " fill="#7A7A7A" transform="translate(1139,151)"/>
<path d="M0 0 C5.87638975 4.33733529 12.16735383 9.58861392 15.4921875 16.23828125 C15.78486353 19.43955152 15.77021225 22.65018779 15.8046875 25.86328125 C15.83369141 26.74113281 15.86269531 27.61898438 15.89257812 28.5234375 C15.96525973 36.04877868 14.01053276 41.05331519 9.3671875 46.92578125 C0.05004146 54.42000741 -8.66719227 55.4853846 -20.35253906 54.53369141 C-27.36172398 53.57298527 -33.1668594 49.72831017 -37.5078125 44.23828125 C-41.31645958 38.2982936 -42.13461553 33.21244774 -42.0078125 26.23828125 C-42.02328125 25.3875 -42.03875 24.53671875 -42.0546875 23.66015625 C-42.01846675 17.75617385 -40.88508751 13.14830177 -37.5078125 8.23828125 C-35.3203125 6.61328125 -35.3203125 6.61328125 -32.5078125 5.23828125 C-30.21920176 3.69613495 -27.95571146 2.12052628 -25.69140625 0.54296875 C-18.59931275 -3.6945254 -7.26106439 -3.64670383 0 0 Z " fill="#7D7D7D" transform="translate(522.5078125,271.76171875)"/>
<path d="M0 0 C6.70337697 4.13687425 10.81949878 11.41396406 12.6875 18.9375 C12.90947719 20.34917518 13.10026154 21.76634586 13.25 23.1875 C13.37375 24.30125 13.4975 25.415 13.625 26.5625 C12.77303671 34.7981451 9.7915809 42.86418922 3.25 48.1875 C-5.65431873 54.46797559 -14.2174866 55.64400856 -24.75 54.1875 C-32.2656845 51.83226639 -38.02344868 47.59482079 -41.8515625 40.64453125 C-44.2046396 35.82483696 -44.34619448 31.47819633 -44.25 26.1875 C-44.26546875 25.33671875 -44.2809375 24.4859375 -44.296875 23.609375 C-44.25199335 16.29366645 -42.13587005 11.20492389 -37.625 5.5 C-27.19223325 -2.89157326 -12.67809976 -5.30846815 0 0 Z " fill="#7D7D7D" transform="translate(467.75,171.8125)"/>
<path d="M0 0 C7.47794664 1.29151429 14.86523717 2.82246813 22.25 4.56640625 C23.27053467 4.80536118 24.29106934 5.0443161 25.3425293 5.29051208 C27.47719261 5.79092863 29.61154886 6.29265673 31.74560547 6.7956543 C35.01846067 7.56684996 38.29234704 8.33354309 41.56640625 9.09960938 C43.64849895 9.58827991 45.73053238 10.07720306 47.8125 10.56640625 C48.79057617 10.79558243 49.76865234 11.02475861 50.77636719 11.26087952 C51.68161133 11.47457687 52.58685547 11.68827423 53.51953125 11.90844727 C54.31464111 12.09560806 55.10975098 12.28276886 55.92895508 12.4756012 C57.6400276 12.90885321 59.3255064 13.44183547 61 14 C60.01 20.27 59.02 26.54 58 33 C53.11246508 32.38905814 48.75368765 31.81627275 44.04296875 30.69311523 C42.94243164 30.43292099 41.84189453 30.17272675 40.70800781 29.90464783 C39.54624023 29.62544998 38.38447266 29.34625214 37.1875 29.05859375 C35.97803711 28.77146011 34.76857422 28.48432648 33.52246094 28.18849182 C30.33249572 27.43037755 27.14343152 26.66861672 23.95477295 25.9050293 C20.69063953 25.12433607 17.42534854 24.34851592 14.16015625 23.57226562 C7.77236955 22.05263145 1.38574771 20.52817833 -5 19 C-2.78874635 23.1802315 -0.57547293 27.35938567 1.63970947 31.53753662 C2.41931482 33.00825816 3.19857308 34.47916375 3.97747803 35.95025635 C9.20345297 45.81734984 14.4752542 55.65219145 20.03833008 65.33496094 C21.08435324 67.19138151 22.05225784 69.09153292 23 71 C21.52654711 73.94690578 19.23010022 73.97337822 16.27734375 75.00390625 C12.39360042 76.70262761 9.27612966 79.35460092 6 82 C0.08631496 71.58834634 -5.69900464 61.11694322 -11.31445312 50.54125977 C-12.52137593 48.27231448 -13.7372892 46.0083197 -14.953125 43.74414062 C-15.72972052 42.28414864 -16.50578314 40.82387303 -17.28125 39.36328125 C-17.64158325 38.69557205 -18.0019165 38.02786285 -18.37316895 37.33992004 C-20.17793736 33.91460765 -21.49458667 30.85285439 -22 27 C-20.80503906 26.48953125 -20.80503906 26.48953125 -19.5859375 25.96875 C-12.62254788 22.78354988 -7.41231805 20.03931836 -4 13 C-2.43715256 8.71937069 -1.14288033 4.41017352 0 0 Z " fill="#A7A7A7" transform="translate(481,198)"/>
<path d="M0 0 C0.17015625 0.58007812 0.3403125 1.16015625 0.515625 1.7578125 C2.08072778 6.80277145 4.03040231 10.59680342 7 15 C7 16.32 7 17.64 7 19 C5.95658447 19.43344727 4.91316895 19.86689453 3.83813477 20.31347656 C-0.07053112 21.93752756 -3.97858912 23.56303701 -7.88647461 25.18896484 C-9.57088202 25.88955194 -11.25544925 26.58975494 -12.94018555 27.28955078 C-15.37592042 28.30137309 -17.81105776 29.3146221 -20.24609375 30.328125 C-20.98709824 30.63558655 -21.72810272 30.9430481 -22.49156189 31.25982666 C-23.21162918 31.55983582 -23.93169647 31.85984497 -24.67358398 32.16894531 C-25.37852997 32.46176392 -26.08347595 32.75458252 -26.80978394 33.05627441 C-28.36625231 33.72692926 -29.90910007 34.42958987 -31.44143677 35.15368652 C-32.23943695 35.52932739 -33.03743713 35.90496826 -33.85961914 36.29199219 C-34.58113663 36.64171082 -35.30265411 36.99142944 -36.04603577 37.35174561 C-38 38 -38 38 -41 37 C-41.84375 34.63671875 -41.84375 34.63671875 -42.5 31.6875 C-43.44515984 27.47345438 -43.44515984 27.47345438 -45.65625 23.83203125 C-46.0996875 23.22746094 -46.543125 22.62289062 -47 22 C-46 19 -46 19 -44.17810059 17.91792297 C-43.38391724 17.58705185 -42.58973389 17.25618073 -41.77148438 16.9152832 C-40.87385376 16.53511551 -39.97622314 16.15494781 -39.0513916 15.76325989 C-37.58735901 15.16308296 -37.58735901 15.16308296 -36.09375 14.55078125 C-34.6011969 13.92456123 -34.6011969 13.92456123 -33.07849121 13.28569031 C-29.88983656 11.95102638 -26.69500327 10.63188339 -23.5 9.3125 C-21.34465002 8.41176879 -19.18969656 7.51008811 -17.03515625 6.60742188 C-13.10189957 4.96490903 -9.16819933 3.32357767 -5.22851562 1.6965332 C-4.0372406 1.20380669 -4.0372406 1.20380669 -2.82189941 0.7011261 C-1 0 -1 0 0 0 Z " fill="#A7A7A7" transform="translate(521,158)"/>
<path d="M0 0 C4.28556305 0.81716245 6.00410377 2.85430896 9 6 C11.45057854 8.01812351 12.95696319 8.9856544 16 10 C15.41071814 13.02871123 14.55760976 14.88071677 12.59375 17.25 C12.10100586 17.85320068 11.60826172 18.45640137 11.10058594 19.07788086 C10.57239258 19.71218018 10.04419922 20.34647949 9.5 21 C8.4099452 22.33339986 7.3214225 23.66805356 6.234375 25.00390625 C5.69103516 25.6705127 5.14769531 26.33711914 4.58789062 27.02392578 C0.92609141 31.58090654 -2.53089954 36.29568953 -6 41 C-10.31288062 40.16466312 -11.93256665 38.13876901 -15 35 C-17.28197878 33.24572881 -19.62523139 31.62974316 -22 30 C-20.36004686 26.28336707 -17.99330731 23.23428102 -15.5 20.0625 C-14.60666772 18.91414271 -13.7134419 17.76570259 -12.8203125 16.6171875 C-12.12856934 15.73111816 -12.12856934 15.73111816 -11.42285156 14.82714844 C-9.05909162 11.79173673 -6.71809864 8.73886888 -4.375 5.6875 C-3.52875124 4.58715851 -2.68240694 3.48689048 -1.8359375 2.38671875 C-1.23007812 1.59910156 -0.62421875 0.81148437 0 0 Z " fill="#A7A7A7" transform="translate(542,242)"/>
</svg>
